<svg id="visual" viewBox="0 0 900 600" width="900" height="600" xmlns="http://www.w3.org/2000/svg" xmlns:xlink="http://www.w3.org/1999/xlink" version="1.1"><rect x="0" y="0" width="900" height="600" fill="#001220"></rect><path d="M0 437L25 434.7C50 432.3 100 427.7 150 421C200 414.3 250 405.7 300 412.5C350 419.3 400 441.7 450 455C500 468.3 550 472.7 600 468.3C650 464 700 451 750 439.8C800 428.7 850 419.3 875 414.7L900 410L900 601L875 601C850 601 800 601 750 601C700 601 650 601 600 601C550 601 500 601 450 601C400 601 350 601 300 601C250 601 200 601 150 601C100 601 50 601 25 601L0 601Z" fill="#fa7268"></path><path d="M0 426L25 433.7C50 441.3 100 456.7 150 456.3C200 456 250 440 300 443.3C350 446.7 400 469.3 450 480.7C500 492 550 492 600 481.8C650 471.7 700 451.3 750 446.7C800 442 850 453 875 458.5L900 464L900 601L875 601C850 601 800 601 750 601C700 601 650 601 600 601C550 601 500 601 450 601C400 601 350 601 300 601C250 601 200 601 150 601C100 601 50 601 25 601L0 601Z" fill="#f16367"></path><path d="M0 464L25 466.2C50 468.3 100 472.7 150 480.8C200 489 250 501 300 500.5C350 500 400 487 450 479C500 471 550 468 600 472.2C650 476.3 700 487.7 750 494.3C800 501 850 503 875 504L900 505L900 601L875 601C850 601 800 601 750 601C700 601 650 601 600 601C550 601 500 601 450 601C400 601 350 601 300 601C250 601 200 601 150 601C100 601 50 601 25 601L0 601Z" fill="#e85467"></path><path d="M0 515L25 517.7C50 520.3 100 525.7 150 528.5C200 531.3 250 531.7 300 531.2C350 530.7 400 529.3 450 523.5C500 517.7 550 507.3 600 503C650 498.7 700 500.3 750 506.5C800 512.7 850 523.3 875 528.7L900 534L900 601L875 601C850 601 800 601 750 601C700 601 650 601 600 601C550 601 500 601 450 601C400 601 350 601 300 601C250 601 200 601 150 601C100 601 50 601 25 601L0 601Z" fill="#de4467"></path><path d="M0 548L25 549C50 550 100 552 150 546.8C200 541.7 250 529.3 300 524.7C350 520 400 523 450 530C500 537 550 548 600 554.3C650 560.7 700 562.3 750 556.8C800 551.3 850 538.7 875 532.3L900 526L900 601L875 601C850 601 800 601 750 601C700 601 650 601 600 601C550 601 500 601 450 601C400 601 350 601 300 601C250 601 200 601 150 601C100 601 50 601 25 601L0 601Z" fill="#d23467"></path><path d="M0 570L25 567.3C50 564.7 100 559.3 150 559C200 558.7 250 563.3 300 565.8C350 568.3 400 568.7 450 568.3C500 568 550 567 600 563.2C650 559.3 700 552.7 750 552.7C800 552.7 850 559.3 875 562.7L900 566L900 601L875 601C850 601 800 601 750 601C700 601 650 601 600 601C550 601 500 601 450 601C400 601 350 601 300 601C250 601 200 601 150 601C100 601 50 601 25 601L0 601Z" fill="#c62368"></path></svg>